<?xml version="1.0" standalone="no"?>
<!DOCTYPE svg PUBLIC "-//W3C//DTD SVG 20010904//EN"
 "http://www.w3.org/TR/2001/REC-SVG-20010904/DTD/svg10.dtd">
<svg version="1.0" xmlns="http://www.w3.org/2000/svg"
 width="348.000000pt" height="348.000000pt" viewBox="0 0 348.000000 348.000000"
 preserveAspectRatio="xMidYMid meet">
<metadata>
Created by potrace 1.11, written by Peter Selinger 2001-2013
</metadata>
<g transform="translate(0.000000,348.000000) scale(0.100000,-0.100000)"
fill="#000000" stroke="none">
<path d="M0 1740 l0 -1740 1740 0 1740 0 0 1740 0 1740 -1740 0 -1740 0 0
-1740z m610 993 c55 -36 100 -70 100 -74 0 -5 -18 -37 -41 -71 -58 -89 -152
-287 -187 -393 -115 -347 -113 -719 4 -1065 44 -127 118 -283 184 -384 l49
-75 -101 -65 c-55 -36 -104 -66 -109 -66 -14 0 -85 111 -152 241 -150 287
-218 560 -218 879 -1 292 49 530 166 790 52 114 187 349 203 350 1 0 47 -30
102 -67z m2398 10 c358 -530 430 -1202 191 -1790 -64 -158 -208 -413 -234
-413 -12 0 -205 128 -205 136 0 3 18 31 40 64 115 169 214 420 257 650 27 148
25 430 -5 579 -44 216 -132 438 -242 610 -29 45 -51 83 -49 85 8 6 204 136
206 136 1 0 20 -26 41 -57z m-1403 -828 c28 -8 86 -35 130 -61 171 -100 204
-114 258 -114 74 0 130 31 181 100 l43 57 96 -80 96 -81 -41 -58 c-89 -126
-195 -189 -333 -196 -109 -6 -169 12 -327 99 -144 80 -183 93 -250 87 -59 -6
-104 -36 -149 -99 -19 -26 -37 -48 -42 -49 -8 0 -187 150 -187 157 0 8 42 66
86 118 103 123 267 168 439 120z"/>
</g>
</svg>
